<svg fill="#1C2033" width="52" height="52" viewBox="0 0 64 64" xmlns="http://www.w3.org/2000/svg"><path d="M61.5016 29.2001H32.8016V37.7001H53.4016C52.3016 49.5001 42.7016 54.6001 33.4016 54.6001C21.6016 54.6001 11.1016 45.4001 11.1016 32.1001C11.1016 19.3001 21.1016 9.60011 33.4016 9.60011C42.8016 9.60011 48.5016 15.7001 48.5016 15.7001L54.3016 9.60011C54.3016 9.60011 46.5016 1.10011 33.0016 1.10011C15.2016 1.00011 1.60156 15.9001 1.60156 32.0001C1.60156 47.6001 14.4016 63.0001 33.3016 63.0001C50.0016 63.0001 62.0016 51.7001 62.0016 34.8001C62.1016 31.3001 61.5016 29.2001 61.5016 29.2001Z"/></svg>